<?xml version="1.0" standalone="no"?>
<!DOCTYPE svg PUBLIC "-//W3C//DTD SVG 20010904//EN"
 "http://www.w3.org/TR/2001/REC-SVG-20010904/DTD/svg10.dtd">
<svg version="1.0" xmlns="http://www.w3.org/2000/svg"
 width="900.000000pt" height="573.000000pt" viewBox="0 0 900.000000 573.000000"
 preserveAspectRatio="xMidYMid meet">
<g transform="translate(0.000000,573.000000) scale(0.100000,-0.100000)"
fill="#ffffff" stroke="none">
<path d="M4225 5685 c-5 -1 -50 -8 -100 -14 -205 -27 -458 -88 -617 -150 -12
-5 -43 -17 -68 -26 -97 -38 -285 -127 -375 -180 -33 -19 -67 -38 -75 -42 -8
-4 -64 -41 -125 -82 -343 -233 -676 -590 -866 -928 -48 -85 -119 -228 -148
-298 -59 -146 -29 -128 -251 -147 -107 -9 -244 -17 -305 -18 -120 -2 -177 -13
-115 -23 50 -8 334 -28 545 -37 99 -5 252 -13 340 -19 314 -21 513 -33 705
-41 107 -5 240 -14 295 -19 55 -6 134 -10 175 -10 70 0 165 -6 770 -46 124 -9
261 -15 305 -15 44 -1 123 -5 175 -10 52 -5 202 -14 333 -20 252 -12 260 -11
270 33 3 12 15 47 27 77 12 30 26 69 31 85 21 73 4 69 346 76 169 4 454 12
633 18 179 6 539 18 800 26 261 8 669 22 905 30 237 9 493 15 570 15 77 0 205
3 285 7 l145 7 -105 18 c-58 10 -145 20 -195 23 -49 3 -164 12 -255 20 -91 8
-247 22 -347 30 -101 8 -265 22 -365 30 -322 27 -513 46 -519 53 -4 4 -24 39
-45 77 -132 245 -278 442 -484 656 -130 135 -426 368 -545 429 -11 6 -33 19
-50 30 -16 11 -52 31 -80 45 -27 14 -57 30 -65 35 -23 15 -181 87 -231 105
-117 44 -332 115 -346 115 -9 0 -39 7 -67 14 -184 53 -396 76 -671 75 -126 0
-234 -2 -240 -4z m480 -380 c224 -20 348 -44 565 -113 165 -53 299 -113 493
-221 135 -75 346 -234 462 -348 143 -140 300 -330 358 -435 l27 -48 -37 0
c-19 0 -88 5 -152 10 -221 20 -498 43 -1003 85 -101 8 -246 21 -323 29 -89 9
-144 10 -152 4 -6 -5 -23 -48 -38 -96 -14 -48 -34 -103 -43 -122 l-17 -35 -75
-2 c-41 -1 -178 -9 -305 -17 -126 -9 -342 -23 -480 -31 -464 -28 -719 -44
-885 -56 -91 -6 -246 -15 -345 -19 -99 -5 -225 -14 -280 -19 -156 -16 -265
-14 -265 4 0 42 149 294 268 454 73 99 276 315 377 402 42 35 193 149 199 149
3 0 33 19 68 43 190 126 444 239 673 300 204 53 274 66 440 82 180 17 284 17
470 0z"/>
<path d="M1572 3373 c-16 -15 -375 -491 -510 -678 -62 -86 -86 -119 -99 -135
-33 -42 -163 -221 -163 -225 0 -3 119 -5 264 -5 l263 0 54 77 c30 42 88 123
129 180 41 57 109 151 150 210 41 58 116 160 165 227 l90 121 135 0 c105 0
135 -3 135 -13 0 -13 -31 -60 -165 -246 -41 -57 -111 -155 -155 -216 -44 -62
-115 -160 -157 -218 -43 -58 -75 -109 -72 -114 3 -4 125 -8 272 -8 l267 1 80
110 c44 60 85 115 90 122 6 7 26 35 45 62 19 28 66 93 105 146 38 54 120 165
180 249 61 83 143 197 183 252 56 77 71 103 60 109 -7 5 -308 9 -669 9 -611 0
-658 -1 -677 -17z"/>
<path d="M3423 3348 c-17 -20 -341 -455 -429 -578 -18 -25 -94 -128 -169 -228
-75 -101 -139 -190 -142 -198 -3 -8 4 -15 19 -18 40 -9 492 -28 508 -21 8 3
30 27 48 53 113 162 179 256 223 317 100 140 195 274 252 354 l58 81 256 2
257 3 30 42 c17 23 52 71 79 107 84 116 126 106 -461 106 l-509 0 -20 -22z"/>
<path d="M4879 3318 c-24 -29 -46 -55 -49 -58 -3 -3 -27 -33 -53 -67 -26 -34
-53 -68 -60 -75 -7 -7 -34 -41 -60 -75 -26 -34 -53 -68 -60 -75 -7 -7 -42 -50
-77 -96 -36 -46 -87 -112 -115 -146 -85 -107 -135 -169 -185 -231 -26 -33 -69
-86 -94 -118 -26 -32 -44 -62 -41 -67 4 -6 262 -10 694 -10 l687 0 64 88 c35
48 76 104 92 125 54 69 68 67 -412 67 -303 0 -430 3 -430 11 0 6 32 42 70 80
l70 69 384 0 384 0 52 63 c28 34 60 72 71 85 10 12 19 27 19 32 0 6 -130 10
-365 10 -320 0 -366 2 -372 15 -3 9 2 24 11 34 9 10 16 21 16 25 0 8 41 68 55
79 6 5 60 6 120 3 61 -3 259 -6 440 -7 l330 -1 22 29 c82 105 173 236 173 248
0 13 -82 15 -669 15 l-669 0 -43 -52z"/>
<path d="M6824 3352 c-11 -9 -36 -37 -55 -62 -36 -47 -175 -217 -213 -260 -12
-14 -37 -45 -56 -70 -29 -38 -78 -97 -208 -255 -10 -11 -35 -42 -57 -70 -22
-27 -74 -90 -115 -140 -114 -138 -135 -166 -135 -178 0 -9 178 -13 706 -15
663 -2 707 -1 721 15 28 34 166 271 161 277 -4 3 -190 6 -415 6 -409 0 -428 2
-395 34 6 7 26 29 43 48 18 20 41 41 52 47 14 7 140 11 385 11 l365 0 91 101
c50 56 88 105 85 110 -3 5 -176 9 -394 9 -219 0 -391 4 -394 9 -3 5 21 34 55
65 l60 56 440 0 440 0 22 23 c50 52 187 233 187 248 0 5 -288 9 -677 9 -628 0
-680 -2 -699 -18z"/>
<path d="M3864 2125 c-9 -14 -22 -40 -28 -58 -15 -39 -33 -82 -52 -122 l-15
-31 -432 -17 c-238 -10 -490 -18 -562 -18 -71 0 -267 -6 -435 -14 -168 -8
-384 -15 -480 -15 -96 0 -256 -5 -355 -10 -99 -5 -367 -14 -595 -20 -428 -10
-703 -24 -723 -37 -15 -10 52 -22 123 -22 30 -1 123 -8 205 -16 83 -9 221 -22
308 -30 86 -8 229 -22 317 -30 88 -8 233 -22 323 -30 296 -28 452 -46 462 -55
6 -5 22 -31 35 -57 29 -60 116 -203 159 -263 17 -25 43 -61 56 -81 69 -105
335 -384 460 -484 28 -22 52 -43 55 -46 3 -3 55 -41 115 -83 158 -112 164
-116 170 -116 3 0 24 -12 48 -27 91 -57 346 -177 487 -228 76 -27 106 -37 135
-45 394 -104 506 -120 866 -120 275 0 344 6 539 47 129 27 276 67 328 89 18 8
39 14 46 14 13 0 87 30 216 88 103 45 231 112 295 153 17 10 37 22 45 26 41
20 248 169 354 257 82 68 278 266 353 356 65 80 203 266 203 275 0 2 13 23 29
47 50 75 152 270 196 373 55 130 49 123 107 129 29 3 109 8 178 11 180 7 458
43 364 46 -277 9 -541 19 -704 28 -113 6 -338 18 -500 26 -162 8 -387 20 -500
26 -113 6 -311 14 -440 19 -129 5 -289 14 -355 20 -66 5 -169 10 -230 10 -60
0 -202 7 -315 15 -113 8 -252 15 -310 15 -58 0 -195 7 -305 15 -110 8 -206 15
-212 15 -7 0 -20 -11 -29 -25z m2884 -277 c6 -32 -78 -188 -198 -367 -88 -131
-263 -326 -415 -460 -47 -42 -218 -172 -260 -198 -81 -51 -238 -142 -275 -160
-274 -129 -437 -182 -745 -239 -127 -24 -569 -24 -705 0 -244 42 -387 80 -572
153 -98 37 -288 129 -343 164 -16 10 -39 23 -50 29 -166 88 -425 301 -576 476
-122 140 -229 283 -229 307 0 16 5 19 28 14 16 -3 65 -9 108 -12 43 -3 147
-12 229 -20 83 -8 224 -21 315 -30 91 -8 226 -22 300 -30 74 -8 155 -15 180
-15 25 0 97 -6 160 -14 63 -8 157 -17 207 -20 90 -6 93 -5 109 19 9 13 20 39
24 57 9 38 40 119 61 163 l14 30 125 6 c69 3 197 11 285 18 88 6 255 18 370
26 116 8 280 20 365 26 85 6 223 15 305 19 83 5 218 13 300 19 83 7 247 18
365 26 118 8 267 19 330 24 158 11 184 10 188 -11z"/>
</g>
</svg>
